G04*
G04 #@! TF.GenerationSoftware,Altium Limited,Altium Designer,20.1.11 (218)*
G04*
G04 Layer_Color=65535*
%FSLAX25Y25*%
%MOIN*%
G70*
G04*
G04 #@! TF.SameCoordinates,0F914B5B-63C7-4FC6-B0DB-2B1D55913708*
G04*
G04*
G04 #@! TF.FilePolarity,Positive*
G04*
G01*
G75*
%ADD10C,0.00787*%
%ADD11C,0.01000*%
%ADD12R,0.05512X0.01968*%
D10*
X45587Y37902D02*
X51587D01*
Y47402D01*
X46087D02*
X51587D01*
X68587Y52902D02*
X69087Y52402D01*
X45587Y52902D02*
X68587D01*
X45587Y32402D02*
Y52902D01*
Y32402D02*
X69087D01*
Y52402D01*
X26378Y20866D02*
Y34252D01*
X22244D02*
X25000D01*
X20866Y20866D02*
Y34252D01*
Y20866D02*
X26378D01*
X25000Y34252D02*
X26378D01*
X20866D02*
X22244D01*
X27953Y47933D02*
Y62106D01*
X19291D02*
X27953D01*
X19291Y47933D02*
Y62106D01*
Y47933D02*
X27953D01*
D11*
X71087Y46402D02*
X73086D01*
X72086D01*
Y52400D01*
X71087Y51400D01*
X9781Y30558D02*
Y24560D01*
X12780D01*
X13780Y25560D01*
Y29558D01*
X12780Y30558D01*
X9781D01*
X15779Y24560D02*
X17778D01*
X16779D01*
Y30558D01*
X15779Y29558D01*
X7812Y54088D02*
Y60086D01*
X10811D01*
X11811Y59086D01*
Y57087D01*
X10811Y56087D01*
X7812D01*
X9812D02*
X11811Y54088D01*
X13810D02*
X15810D01*
X14810D01*
Y60086D01*
X13810Y59086D01*
X50235Y62350D02*
X48236D01*
X49236D01*
Y57351D01*
X48236Y56352D01*
X47236D01*
X46237Y57351D01*
X52235Y56352D02*
X54234D01*
X53234D01*
Y62350D01*
X52235Y61350D01*
D12*
X23622Y21850D02*
D03*
M02*
