G04*
G04 #@! TF.GenerationSoftware,Altium Limited,Altium Designer,20.1.11 (218)*
G04*
G04 Layer_Physical_Order=2*
G04 Layer_Color=16711680*
%FSLAX25Y25*%
%MOIN*%
G70*
G04*
G04 #@! TF.SameCoordinates,0F914B5B-63C7-4FC6-B0DB-2B1D55913708*
G04*
G04*
G04 #@! TF.FilePolarity,Positive*
G04*
G01*
G75*
%ADD13R,0.02362X0.03150*%
%ADD14R,0.05709X0.03740*%
%ADD19C,0.01968*%
%ADD20O,0.07874X0.06299*%
%ADD21R,0.07874X0.06299*%
%ADD22C,0.02362*%
G36*
X62992Y69882D02*
X62894D01*
Y66902D01*
X55525Y59534D01*
X55047Y58817D01*
X54879Y57973D01*
Y51732D01*
X51968D01*
Y43071D01*
X62205D01*
Y51732D01*
X59294D01*
Y57058D01*
X62432Y60195D01*
X62894Y60004D01*
Y56102D01*
X62992D01*
Y25042D01*
X59294D01*
Y33498D01*
X59967Y33777D01*
X60834Y34442D01*
X61499Y35309D01*
X61917Y36318D01*
X61994Y36902D01*
X52180D01*
X52256Y36318D01*
X52675Y35309D01*
X53340Y34442D01*
X54207Y33777D01*
X54879Y33498D01*
Y23988D01*
X55047Y23143D01*
X55525Y22427D01*
X56679Y21273D01*
X57395Y20795D01*
X58240Y20627D01*
X62992D01*
Y3937D01*
X3937D01*
Y74803D01*
X62992D01*
Y69882D01*
D02*
G37*
%LPC*%
G36*
X57874Y41587D02*
X57587D01*
Y37902D01*
X61994D01*
X61917Y38485D01*
X61499Y39494D01*
X60834Y40361D01*
X59967Y41026D01*
X58957Y41444D01*
X57874Y41587D01*
D02*
G37*
G36*
X56587D02*
X56299D01*
X55216Y41444D01*
X54207Y41026D01*
X53340Y40361D01*
X52675Y39494D01*
X52256Y38485D01*
X52180Y37902D01*
X56587D01*
Y41587D01*
D02*
G37*
G36*
X37902Y27715D02*
Y26091D01*
X39526D01*
X39456Y26442D01*
X38974Y27163D01*
X38253Y27645D01*
X37902Y27715D01*
D02*
G37*
G36*
X36902D02*
X36551Y27645D01*
X35829Y27163D01*
X35347Y26442D01*
X35277Y26091D01*
X36902D01*
Y27715D01*
D02*
G37*
G36*
X39526Y25091D02*
X37902D01*
Y23466D01*
X38253Y23536D01*
X38974Y24018D01*
X39456Y24739D01*
X39526Y25091D01*
D02*
G37*
G36*
X36902D02*
X35277D01*
X35347Y24739D01*
X35829Y24018D01*
X36551Y23536D01*
X36902Y23466D01*
Y25091D01*
D02*
G37*
%LPD*%
D13*
X66929Y22835D02*
D03*
Y28445D02*
D03*
D14*
Y59153D02*
D03*
Y66831D02*
D03*
D19*
X58240Y22835D02*
X66929D01*
X57087Y23988D02*
Y37402D01*
Y23988D02*
X58240Y22835D01*
X66929Y28445D02*
Y59153D01*
X57087Y47402D02*
Y57973D01*
X65945Y66831D01*
X66929D01*
D20*
X57087Y37402D02*
D03*
D21*
Y47402D02*
D03*
D22*
X37402Y25591D02*
D03*
M02*
